<svg width="1000" height="1000" viewBox="0 0 1000 1000" fill="none" xmlns="http://www.w3.org/2000/svg">
<g clip-path="url(#clip0_81_26)">
<circle cx="500" cy="500" r="500" fill="#0085FF"/>
<path d="M378.863 413.876C344.945 319.09 229.406 313.205 180 319.09C191.88 305.451 227.461 286.075 262.24 253.113C291.209 225.658 317.202 186.493 350.985 154.61C402.095 111.865 452.275 108.806 488.981 111.865C550.313 116.976 649.279 142.995 649.279 258.224C644.633 413.876 557.747 462.727 533.586 537.468C509.425 612.209 533.586 665.307 533.586 665.307C533.586 665.307 537.767 584.991 602.816 561.229C667.865 537.468 721.298 477.131 721.298 477.131C744.065 617.915 616.526 627.607 580.514 763.28C560.535 838.55 611.18 892.554 602.816 889.195C378.863 799.258 423.932 577.891 432.76 537.468C447.981 467.773 569.363 199.115 402.095 201.074C344.599 201.747 311.956 224.77 316.602 263.334C321.248 301.899 365.573 322.66 378.863 353.473C394.695 390.179 378.863 413.876 378.863 413.876Z" fill="white"/>
<path d="M366.319 238.71V259.618H341.228C341.228 259.618 341.228 297.718 370.036 297.718C390.943 297.718 401.631 288.954 401.631 267.581C401.631 248.996 390.014 238.71 366.319 238.71Z" fill="white"/>
</g>
<defs>
<clipPath id="clip0_81_26">
<rect width="1000" height="1000" fill="white"/>
</clipPath>
</defs>
</svg>
