<svg width="1659" height="1592" viewBox="0 0 1659 1592" fill="none" xmlns="http://www.w3.org/2000/svg">
<g clip-path="url(#clip0_80_2)">
<circle cx="786" cy="500" r="500" fill="#0085FF"/>
<path d="M664.863 413.876C630.945 319.09 515.406 313.205 466 319.09C477.88 305.451 513.461 286.075 548.24 253.113C577.209 225.658 603.202 186.493 636.985 154.61C688.095 111.865 738.275 108.806 774.981 111.865C836.313 116.976 935.279 142.995 935.279 258.224C930.633 413.876 843.747 462.727 819.586 537.468C795.425 612.209 819.586 665.307 819.586 665.307C819.586 665.307 823.767 584.991 888.816 561.229C953.865 537.468 1007.3 477.131 1007.3 477.131C1030.06 617.915 902.526 627.607 866.514 763.28C846.535 838.55 897.18 892.554 888.816 889.195C664.863 799.258 709.932 577.891 718.76 537.468C733.981 467.773 855.363 199.115 688.095 201.074C630.599 201.747 597.956 224.77 602.602 263.334C607.248 301.899 651.573 322.66 664.863 353.473C680.695 390.179 664.863 413.876 664.863 413.876Z" fill="white"/>
<path d="M652.319 238.71V259.618H627.229C627.229 259.618 627.228 297.718 656.036 297.718C676.944 297.718 687.631 288.954 687.631 267.581C687.631 248.996 676.014 238.71 652.319 238.71Z" fill="white"/>
<path d="M147.6 1436V1023.2H229.8V1436H147.6ZM13.2 1086.8V1014.2H364.2V1086.8H13.2ZM477.15 1442C451.55 1442 428.75 1436.6 408.75 1425.8C389.15 1415 373.75 1400 362.55 1380.8C351.35 1361.6 345.75 1339.4 345.75 1314.2V1146.2H424.95V1312.4C424.95 1324.4 426.95 1334.8 430.95 1343.6C434.95 1352 440.95 1358.4 448.95 1362.8C456.95 1367.2 466.35 1369.4 477.15 1369.4C493.55 1369.4 506.35 1364.4 515.55 1354.4C524.75 1344.4 529.35 1330.4 529.35 1312.4V1146.2H607.95V1314.2C607.95 1339.8 602.35 1362.2 591.15 1381.4C580.35 1400.6 564.95 1415.6 544.95 1426.4C525.35 1436.8 502.75 1442 477.15 1442ZM851.742 1436L775.542 1318.4L759.342 1306.4L646.542 1146.2H739.542L809.742 1252.4L824.742 1263.8L944.142 1436H851.742ZM640.542 1436L758.742 1270.4L803.742 1323.8L729.342 1436H640.542ZM827.742 1305.8L781.542 1253L850.542 1146.2H938.742L827.742 1305.8ZM984.605 1436V1146.2H1063.8V1436H984.605ZM1024.2 1099.4C1011.4 1099.4 1000.8 1095.2 992.405 1086.8C984.005 1078 979.805 1067.2 979.805 1054.4C979.805 1042 984.005 1031.4 992.405 1022.6C1000.8 1013.8 1011.4 1009.4 1024.2 1009.4C1037.4 1009.4 1048 1013.8 1056 1022.6C1064.4 1031.4 1068.6 1042 1068.6 1054.4C1068.6 1067.2 1064.4 1078 1056 1086.8C1048 1095.2 1037.4 1099.4 1024.2 1099.4ZM1171.83 1436V1115C1171.83 1091.8 1176.83 1071.4 1186.83 1053.8C1196.83 1035.8 1211.03 1021.6 1229.43 1011.2C1247.83 1000.8 1269.43 995.6 1294.23 995.6C1313.03 995.6 1329.23 998.8 1342.83 1005.2C1356.43 1011.6 1368.63 1020.4 1379.43 1031.6L1329.63 1082C1325.23 1077.6 1320.43 1074.2 1315.23 1071.8C1310.03 1069.4 1303.43 1068.2 1295.43 1068.2C1281.03 1068.2 1269.83 1072.2 1261.83 1080.2C1254.23 1087.8 1250.43 1098.8 1250.43 1113.2V1436H1171.83ZM1104.63 1215.2V1146.2H1336.23V1215.2H1104.63ZM1468.97 1438.4L1347.77 1146.2H1432.97L1513.37 1369.4H1484.57L1567.97 1146.2H1653.77L1524.77 1437.8L1468.97 1438.4ZM1388.57 1557.2L1476.77 1370.6L1524.77 1437.8L1471.97 1557.2H1388.57Z" fill="#0085FF"/>
</g>
<defs>
<clipPath id="clip0_80_2">
<rect width="1659" height="1592" fill="white"/>
</clipPath>
</defs>
</svg>
